<svg id="图层_1" data-name="图层 1" xmlns="http://www.w3.org/2000/svg" xmlns:xlink="http://www.w3.org/1999/xlink" viewBox="0 0 760.62 758.53"><defs><style>.cls-1{fill:none;}.cls-10,.cls-2,.cls-4,.cls-8{fill:#fff;}.cls-2{stroke:#231815;stroke-miterlimit:10;}.cls-11,.cls-23,.cls-3,.cls-9{fill:#231815;}.cls-4{font-size:19.57px;}.cls-10,.cls-11,.cls-21,.cls-22,.cls-4,.cls-9{font-family:YouSheBiaoTiHei;}.cls-5{clip-path:url(#clip-path);}.cls-6{fill:#094;}.cls-7{clip-path:url(#clip-path-2);}.cls-21,.cls-23,.cls-9{font-size:12px;}.cls-10{font-size:22px;}.cls-11,.cls-22{font-size:24.02px;}.cls-12{clip-path:url(#clip-path-3);}.cls-13{clip-path:url(#clip-path-4);}.cls-14{clip-path:url(#clip-path-5);}.cls-15{clip-path:url(#clip-path-6);}.cls-16{clip-path:url(#clip-path-7);}.cls-17{clip-path:url(#clip-path-8);}.cls-18,.cls-21,.cls-22{fill:#1d2088;}.cls-19{clip-path:url(#clip-path-9);}.cls-20{clip-path:url(#clip-path-10);}.cls-23{font-family:AdobeSongStd-Light-GBpc-EUC-H, Adobe Song Std;}.cls-24{clip-path:url(#clip-path-11);}.cls-25{clip-path:url(#clip-path-12);}</style><clipPath id="clip-path" transform="translate(121.71 -125.73)"><rect class="cls-1" x="47.13" y="192.42" width="135.05" height="301.79"/></clipPath><clipPath id="clip-path-2" transform="translate(121.71 -125.73)"><rect class="cls-1" x="11.41" y="255.15" width="30.41" height="46.35"/></clipPath><clipPath id="clip-path-3" transform="translate(121.71 -125.73)"><rect class="cls-1" x="231.21" y="189.68" width="135.05" height="301.79"/></clipPath><clipPath id="clip-path-4" transform="translate(121.71 -125.73)"><rect class="cls-1" x="196.14" y="250.74" width="30.41" height="46.35"/></clipPath><clipPath id="clip-path-5" transform="translate(121.71 -125.73)"><rect class="cls-1" x="49.02" y="512.81" width="135.05" height="301.79"/></clipPath><clipPath id="clip-path-6" transform="translate(121.71 -125.73)"><rect class="cls-1" x="13.82" y="532.1" width="30.41" height="150.86"/></clipPath><clipPath id="clip-path-7" transform="translate(121.71 -125.73)"><rect class="cls-1" x="249.12" y="520.21" width="135.05" height="301.79"/></clipPath><clipPath id="clip-path-8" transform="translate(121.71 -125.73)"><rect class="cls-1" x="213.91" y="539.49" width="30.41" height="279.08"/></clipPath><clipPath id="clip-path-9" transform="translate(121.71 -125.73)"><rect class="cls-1" x="432.32" y="191.14" width="135.05" height="301.79"/></clipPath><clipPath id="clip-path-10" transform="translate(121.71 -125.73)"><rect class="cls-1" x="398.45" y="217.09" width="30.41" height="150.86"/></clipPath><clipPath id="clip-path-11" transform="translate(121.71 -125.73)"><rect class="cls-1" x="438.8" y="520.59" width="135.05" height="301.79"/></clipPath><clipPath id="clip-path-12" transform="translate(121.71 -125.73)"><polygon class="cls-1" points="423.15 612.19 434.14 601.72 430.62 587.02 416.11 582.79 405.12 593.26 408.64 607.97 423.15 612.19"/></clipPath></defs><rect class="cls-2" x="132.39" y="65.92" width="172.12" height="300"/><rect class="cls-3" x="136.6" y="65.92" width="16.03" height="299.82"/><rect class="cls-3" x="156.74" y="65.92" width="6" height="300"/><text class="cls-4" transform="translate(152.78 126.35) rotate(-90) scale(1.5 1)">斩击</text><g class="cls-5"><polygon class="cls-3" points="79.26 162.55 67.34 126.93 348.41 30.78 360.33 66.4 79.26 162.55"/><polygon class="cls-6" points="87.87 316.3 42.07 179.43 323.15 83.28 368.95 220.15 87.87 316.3"/></g><g class="cls-7"><rect class="cls-8" x="73.4" y="100.66" width="6.05" height="300" transform="matrix(0.32, 0.95, -0.95, 0.32, 411.08, -27.79)"/><rect class="cls-8" x="82.83" y="110.76" width="6.1" height="300" transform="translate(427.07 -29.88) rotate(71.31)"/></g><text class="cls-9" transform="matrix(0.95, -0.32, 0.32, 0.95, 178.62, 303.25)">请输入文本</text><text class="cls-10" transform="matrix(0.95, -0.32, 0.32, 0.95, 178.62, 120.65)">请输入文本</text><text class="cls-11" transform="translate(173.85 89.34) rotate(-21.29) scale(1.42 1)">3</text><rect class="cls-2" x="316.48" y="63.18" width="172.12" height="300"/><rect class="cls-3" x="320.68" y="63.18" width="16.03" height="299.82"/><rect class="cls-3" x="340.83" y="63.18" width="6" height="300"/><text class="cls-4" transform="translate(337.03 124.43) rotate(-90) scale(1.5 1)">突刺</text><g class="cls-12"><polygon class="cls-3" points="263.34 159.81 251.42 124.19 532.5 28.04 544.42 63.66 263.34 159.81"/><polygon class="cls-6" points="271.96 313.56 226.16 176.69 507.23 80.54 553.04 217.41 271.96 313.56"/></g><g class="cls-13"><rect class="cls-8" x="229.45" y="106.09" width="6.09" height="300" transform="translate(522.27 -171.94) rotate(71.31)"/><rect class="cls-8" x="232.28" y="136.35" width="6.07" height="300" transform="translate(10.37 291.75) rotate(-71.31)"/><rect class="cls-8" x="355.75" y="164.32" width="6.09" height="300" transform="translate(67.78 427.73) rotate(-71.31)"/></g><text class="cls-9" transform="matrix(0.95, -0.32, 0.32, 0.95, 362.71, 300.51)">请输入文本</text><text class="cls-10" transform="matrix(0.95, -0.32, 0.32, 0.95, 362.71, 117.91)">请输入文本</text><text class="cls-11" transform="translate(357.93 86.6) rotate(-21.29) scale(1.42 1)">3</text><rect class="cls-2" x="134.29" y="386.32" width="172.12" height="300"/><rect class="cls-3" x="138.49" y="386.32" width="16.03" height="299.82"/><rect class="cls-3" x="158.63" y="386.32" width="6" height="300"/><text class="cls-4" transform="translate(154.68 446.75) rotate(-90) scale(1.5 1)">打击</text><g class="cls-14"><polygon class="cls-3" points="81.15 482.94 69.23 447.32 350.31 351.18 362.23 386.8 81.15 482.94"/><polygon class="cls-6" points="89.77 636.69 43.97 499.82 325.04 403.67 370.85 540.55 89.77 636.69"/></g><g class="cls-15"><rect class="cls-8" x="24.63" y="449.22" width="6.05" height="300" transform="translate(390.53 -75.75) rotate(26.35)"/><rect class="cls-8" x="18.32" y="430.86" width="6.05" height="300" transform="translate(-414.01 289.2) rotate(-71.31)"/></g><text class="cls-9" transform="matrix(0.95, -0.32, 0.32, 0.95, 180.52, 623.64)">请输入文本</text><text class="cls-10" transform="matrix(0.95, -0.32, 0.32, 0.95, 180.52, 441.04)">请输入文本</text><text class="cls-11" transform="translate(175.74 409.73) rotate(-21.29) scale(1.42 1)">3</text><rect class="cls-2" x="334.38" y="393.71" width="172.12" height="300"/><rect class="cls-3" x="338.59" y="393.71" width="16.03" height="299.82"/><rect class="cls-3" x="358.73" y="393.71" width="6" height="300"/><text class="cls-4" transform="translate(354.77 454.14) rotate(-90) scale(1.5 1)">远程</text><g class="cls-16"><polygon class="cls-3" points="281.25 490.33 269.33 454.72 550.4 358.57 562.32 394.19 281.25 490.33"/><polygon class="cls-6" points="289.86 644.09 244.06 507.21 525.14 411.07 570.94 547.94 289.86 644.09"/></g><g class="cls-17"><rect class="cls-8" x="226.49" y="584.25" width="3.73" height="300" transform="translate(578.42 1342.78) rotate(180)"/><rect class="cls-8" x="151.16" y="565.03" width="3.59" height="300" transform="translate(49.61 1285.02) rotate(-150)"/></g><text class="cls-9" transform="matrix(0.95, -0.32, 0.32, 0.95, 380.61, 631.04)">请输入文本</text><text class="cls-10" transform="matrix(0.95, -0.32, 0.32, 0.95, 380.61, 448.43)">请输入文本</text><text class="cls-11" transform="translate(375.84 417.13) rotate(-21.29) scale(1.42 1)">3</text><rect class="cls-2" x="517.59" y="64.64" width="172.12" height="300"/><rect class="cls-18" x="521.79" y="64.64" width="16.03" height="299.82"/><rect class="cls-18" x="541.93" y="64.64" width="6" height="300"/><text class="cls-4" transform="translate(537.98 125.07) rotate(-90) scale(1.5 1)">技能</text><g class="cls-19"><polygon class="cls-18" points="464.45 161.27 452.53 125.65 733.61 29.5 745.53 65.12 464.45 161.27"/><polygon class="cls-6" points="473.07 315.02 427.26 178.15 708.34 82 754.14 218.87 473.07 315.02"/></g><g class="cls-20"><rect class="cls-8" x="407.27" y="120.81" width="6.05" height="300" transform="translate(143.99 446.95) rotate(-71.31)"/><polygon class="cls-8" points="525.08 148.94 527.12 159.13 534.92 152.27 525.08 148.94"/><polygon class="cls-8" points="533.72 129.34 525.91 136.2 535.75 139.53 533.72 129.34"/></g><text class="cls-21" transform="matrix(0.95, -0.32, 0.32, 0.95, 563.81, 301.97)">请输入文本</text><text class="cls-10" transform="matrix(0.95, -0.32, 0.32, 0.95, 563.81, 119.37)">请输入文本</text><text class="cls-22" transform="translate(559.04 88.06) rotate(-21.29) scale(1.42 1)">3</text><text class="cls-23" transform="translate(179.57 10.56)">滚滚长江东逝水</text><text x="121.71" y="-125.73"/><rect class="cls-18" x="528.27" y="394.1" width="16.03" height="299.82"/><rect class="cls-18" x="548.41" y="394.1" width="6" height="300"/><text class="cls-4" transform="translate(544.45 454.52) rotate(-90) scale(1.5 1)">能力</text><g class="cls-24"><polygon class="cls-18" points="470.93 490.72 459.01 455.1 740.08 358.95 752 394.57 470.93 490.72"/><polygon class="cls-6" points="479.54 644.47 433.74 507.6 714.82 411.45 760.62 548.32 479.54 644.47"/></g><text class="cls-21" transform="matrix(0.95, -0.32, 0.32, 0.95, 570.29, 631.42)">请输入文本</text><text class="cls-10" transform="matrix(0.95, -0.32, 0.32, 0.95, 570.29, 448.82)">请输入文本</text><text class="cls-22" transform="translate(565.52 417.51) rotate(-21.29) scale(1.42 1)">3</text><g class="cls-25"><rect class="cls-2" x="524.06" y="394.1" width="172.12" height="300"/><rect class="cls-18" x="544.3" y="456.85" width="4.03" height="28.95"/></g></svg>